<svg xmlns="http://www.w3.org/2000/svg" viewBox="0 0 24 24">
  <path d="M12 3C9.794 3 8 4.794 8 7C8 9.206 9.794 11 12 11C14.206 11 16 9.206 16 7C16 4.794 14.206 3 12 3 z M 12 5C13.103 5 14 5.897 14 7C14 8.103 13.103 9 12 9C10.897 9 10 8.103 10 7C10 5.897 10.897 5 12 5 z M 18 12C16.187783 12 14.559578 12.816944 13.457031 14.097656C12.936517 14.037674 12.438162 14 12 14C8.859 14 3 15.545 3 18.5L3 21L12.816406 21C13.858329 22.787761 15.792517 24 18 24C21.3 24 24 21.3 24 18C24 14.7 21.3 12 18 12 z M 17 15L19 15L19 17L21 17L21 19L19 19L19 21L17 21L17 19L15 19L15 17L17 17L17 15 z M 12 16C12.113338 16 12.229577 16.017468 12.34375 16.021484C12.124883 16.642338 12 17.306709 12 18C12 18.341286 12.036363 18.673872 12.091797 19L5 19L5 18.5C5 17.631 8.708 16 12 16 z"  />
</svg>