<svg xmlns="http://www.w3.org/2000/svg" viewBox="0 0 24 24">
  <path d="M12 1C8.686 1 6 3.686 6 7C6 11.286 12 18 12 18C12 18 18 11.286 18 7C18 3.686 15.314 1 12 1 z M 12 3C14.206 3 16 4.794 16 7C16 9.01 13.919047 12.360375 11.998047 14.859375C10.077047 12.364375 8 9.016 8 7C8 4.794 9.794 3 12 3 z M 12 5 A 2 2 0 0 0 10 7 A 2 2 0 0 0 12 9 A 2 2 0 0 0 14 7 A 2 2 0 0 0 12 5 z M 4.8007812 15L2 22L22 22L19.199219 15L16.8125 15C16.3275 15.731 15.840578 16.408 15.392578 17L17.847656 17L19.046875 20L4.953125 20L6.1523438 17L8.6074219 17C8.1594219 16.408 7.6725 15.731 7.1875 15L4.8007812 15 z" />
</svg>