<svg xmlns="http://www.w3.org/2000/svg" viewBox="0 0 24 24">
  <path d="M12 3C9.8027056 3 8 4.8027056 8 7C8 9.1972944 9.8027056 11 12 11C14.197294 11 16 9.1972944 16 7C16 4.8027056 14.197294 3 12 3 z M 12 5C13.116414 5 14 5.8835859 14 7C14 8.1164141 13.116414 9 12 9C10.883586 9 10 8.1164141 10 7C10 5.8835859 10.883586 5 12 5 z M 12 14C8.859 14 3 15.545 3 18.5L3 21L12.294922 21C12.105922 20.366 12 19.695 12 19L5 19L5 18.5C5 17.631 8.708 16 12 16C12.222 16 12.446875 16.009438 12.671875 16.023438C12.997875 15.332437 13.430125 14.70125 13.953125 14.15625C13.245125 14.05225 12.577 14 12 14 z M 18.064453 14C17.935453 14 17.8275 14.096609 17.8125 14.224609L17.695312 15.236328C17.211312 15.404328 16.774531 15.659281 16.394531 15.988281L15.457031 15.582031C15.339031 15.531031 15.202672 15.577453 15.138672 15.689453L14.201172 17.310547C14.137172 17.422547 14.166531 17.564625 14.269531 17.640625L15.076172 18.238281C15.029172 18.486281 15 18.74 15 19C15 19.26 15.028172 19.512766 15.076172 19.759766L14.271484 20.359375C14.168484 20.436375 14.138125 20.578453 14.203125 20.689453L15.138672 22.310547C15.202672 22.422547 15.340984 22.467016 15.458984 22.416016L16.394531 22.011719C16.773531 22.339719 17.211313 22.595672 17.695312 22.763672L17.8125 23.775391C17.8265 23.904391 17.935453 24 18.064453 24L19.935547 24C20.064547 24 20.1725 23.903391 20.1875 23.775391L20.304688 22.763672C20.788688 22.595672 21.225469 22.340719 21.605469 22.011719L22.542969 22.417969C22.660969 22.468969 22.797328 22.421547 22.861328 22.310547L23.798828 20.689453C23.862828 20.577453 23.833469 20.435375 23.730469 20.359375L22.923828 19.759766C22.971828 19.512766 23 19.26 23 19C23 18.74 22.971828 18.487234 22.923828 18.240234L23.728516 17.640625C23.831516 17.563625 23.861875 17.421547 23.796875 17.310547L22.861328 15.689453C22.797328 15.577453 22.659016 15.532984 22.541016 15.583984L21.605469 15.988281C21.226469 15.660281 20.788688 15.404328 20.304688 15.236328L20.1875 14.224609C20.1735 14.095609 20.064547 14 19.935547 14L18.064453 14 z M 19 17.25C19.966 17.25 20.75 18.033 20.75 19C20.75 19.966 19.966 20.75 19 20.75C18.034 20.75 17.25 19.966 17.25 19C17.25 18.033 18.034 17.25 19 17.25 z" />
</svg>