<svg xmlns="http://www.w3.org/2000/svg" viewBox="0 0 24 24">
  <path d="M6 7C3.239 7 1 9.239 1 12C1 14.761 3.239 17 6 17L10 17L10 15L6 15C4.343 15 3 13.657 3 12C3 10.343 4.343 9 6 9L10 9L10 7L6 7 z M 18.089844 7.7929688L16.865234 9.375C17.476234 9.847 19.224938 11.153953 19.835938 11.626953C21.146937 12.639953 21.386047 14.522984 20.373047 15.833984C19.360047 17.144984 17.477016 17.386047 16.166016 16.373047C15.555016 15.901047 13.808266 14.594094 13.197266 14.121094L11.974609 15.703125C12.537609 16.138125 14.379359 17.519078 14.943359 17.955078C17.127359 19.644078 20.268031 19.241641 21.957031 17.056641C23.646031 14.871641 23.242594 11.733922 21.058594 10.044922C20.495594 9.6099219 18.653844 8.2289687 18.089844 7.7929688 z M 7 11L7 13L16 13L16 11L7 11 z" />
</svg>