<svg xmlns="http://www.w3.org/2000/svg" viewBox="0 0 24 24">
  <path d="M12 2C6.4889971 2 2 6.4889971 2 12C2 17.511003 6.4889971 22 12 22C17.511003 22 22 17.511003 22 12C22 6.4889971 17.511003 2 12 2 z M 12 4C16.430123 4 20 7.5698774 20 12C20 16.430123 16.430123 20 12 20C7.5698774 20 4 16.430123 4 12C4 7.5698774 7.5698774 4 12 4 z M 8.7070312 7.2929688L7.2929688 8.7070312L10.585938 12L7.2929688 15.292969L8.7070312 16.707031L12 13.414062L15.292969 16.707031L16.707031 15.292969L13.414062 12L16.707031 8.7070312L15.292969 7.2929688L12 10.585938L8.7070312 7.2929688 z" />
</svg>