<svg xmlns="http://www.w3.org/2000/svg" viewBox="0 0 24 24">
  <path d="M12 3C9.8027056 3 8 4.8027056 8 7C8 9.1972944 9.8027056 11 12 11C14.197294 11 16 9.1972944 16 7C16 4.8027056 14.197294 3 12 3 z M 12 5C13.116414 5 14 5.8835859 14 7C14 8.1164141 13.116414 9 12 9C10.883586 9 10 8.1164141 10 7C10 5.8835859 10.883586 5 12 5 z M 18 12C16.187239 12 14.559267 12.815775 13.457031 14.095703C12.958356 14.038864 12.466234 14 12 14C10.255047 14 8.1871638 14.409783 6.4492188 15.095703C5.5802462 15.438663 4.7946961 15.84605 4.1660156 16.369141C3.5373351 16.892231 3 17.599384 3 18.5L3 21L12.814453 21C13.855633 22.789045 15.790313 24 18 24C21.301864 24 24 21.301864 24 18C24 14.698136 21.301864 12 18 12 z M 18 14C19.003867 14 19.905651 14.377038 20.605469 14.980469L18 17.585938L16.707031 16.292969L15.292969 17.707031L18 20.414062L21.755859 16.658203C21.904886 17.0789 22 17.52606 22 18C22 20.220984 20.220984 22 18 22C15.779016 22 14 20.220984 14 18C14 15.779016 15.779016 14 18 14 z M 12 16C12.1083 16 12.231647 16.011514 12.345703 16.015625C12.125637 16.638249 12 17.304145 12 18C12 18.341479 12.036397 18.673752 12.091797 19L5 19L5 18.5C5 18.434616 5.0675867 18.220535 5.4453125 17.90625C5.8230383 17.591965 6.4454882 17.245618 7.1816406 16.955078C8.6539455 16.373999 10.585953 16 12 16 z" />
</svg>