<svg xmlns="http://www.w3.org/2000/svg" viewBox="0 0 24 24">
  <path d="M3 3C1.9069372 3 1 3.9069372 1 5L1 19C1 20.093063 1.9069372 21 3 21L21 21C22.093063 21 23 20.093063 23 19L23 7C23 5.9069372 22.093063 5 21 5L13.617188 5L13.171875 4.1074219L13.169922 4.1054688C12.832312 3.430585 12.13729 3 11.382812 3L3 3 z M 3 5L11.380859 5L12.382812 7L21 7L21 19L19 19L19 18L17 18L17 19L7 19L7 18L5 18L5 19L3 19L3 5 z M 9 8 A 2 2 0 0 0 7 10 A 2 2 0 0 0 9 12 A 2 2 0 0 0 11 10 A 2 2 0 0 0 9 8 z M 15 10L15 12L19 12L19 10L15 10 z M 9 13C6.815 13 5 13.908797 5 15.216797L5 16L13 16L13 15.216797C13 13.908797 11.185 13 9 13 z M 15 14L15 16L19 16L19 14L15 14 z"  />
</svg>