<svg xmlns="http://www.w3.org/2000/svg" viewBox="0 0 24 24">
  <path d="M6 1L6 3L5 3C3.9 3 3 3.9 3 5L3 19C3 20.1 3.9 21 5 21L13.171875 21L15.171875 19L5 19L5 9L19 9L19 15.171875L21 13.171875L21 5C21 3.9 20.1 3 19 3L18 3L18 1L16 1L16 3L8 3L8 1L6 1 z M 5 5L6 5L8 5L16 5L18 5L19 5L19 7L5 7L5 5 z M 22.207031 15C22.079156 15 21.951016 15.048984 21.853516 15.146484L20.853516 16.146484L22.853516 18.146484L23.853516 17.146484C24.048516 16.951484 24.048516 16.634453 23.853516 16.439453L22.560547 15.146484C22.462547 15.048984 22.334906 15 22.207031 15 z M 20.146484 16.853516L15 22L15 24L17 24L22.146484 18.853516L20.146484 16.853516 z" />
</svg>