<svg xmlns="http://www.w3.org/2000/svg" viewBox="0 0 24 24">
  <path d="M8.2070312 1.9921875L6.7929688 3.40625L9.5761719 6.1894531L3.7988281 11.787109L3.7929688 11.792969C2.6394154 12.946522 2.6394154 14.854259 3.7929688 16.007812L8.8925781 21.107422C10.046132 22.260975 11.903752 22.311091 13.007812 21.207031L18.107422 16.107422C19.260975 14.953868 19.260975 13.046132 18.107422 11.892578L16.107422 9.8925781L8.2070312 1.9921875 z M 10.988281 7.6035156L14.693359 11.306641L16.693359 13.306641C16.916583 13.529864 17.027344 13.764932 17.027344 14L4.8964844 14C4.8603635 13.731888 4.9521709 13.461892 5.2070312 13.207031L10.988281 7.6035156 z M 20 16C20 16 18 18.9 18 20C18 21.1 18.9 22 20 22C21.1 22 22 21.1 22 20C22 18.9 20 16 20 16 z"  />
</svg>