<svg xmlns="http://www.w3.org/2000/svg" viewBox="0 0 24 24">
  <path d="M12 3C9.794 3 8 4.794 8 7C8 9.206 9.794 11 12 11C14.206 11 16 9.206 16 7C16 4.794 14.206 3 12 3 z M 12 5C13.103 5 14 5.897 14 7C14 8.103 13.103 9 12 9C10.897 9 10 8.103 10 7C10 5.897 10.897 5 12 5 z M 18 13C15.2 13 13 15.2 13 18C13 20.8 15.2 23 18 23C19 23 20.000781 22.699219 20.800781 22.199219L22.599609 24L24 22.599609L22.199219 20.800781C22.699219 20.000781 23 19 23 18C23 15.2 20.8 13 18 13 z M 12 14C8.859 14 3 15.546 3 18.5L3 21L11.683594 21C11.387594 20.378 11.181078 19.707 11.080078 19L5 19L5 18.5C5 17.693 8.1951094 16.231391 11.287109 16.025391C11.501109 15.295391 11.830859 14.617813 12.255859 14.007812C12.170859 14.005813 12.081 14 12 14 z M 18 15C19.7 15 21 16.3 21 18C21 19.7 19.7 21 18 21C16.3 21 15 19.7 15 18C15 16.3 16.3 15 18 15 z" />
</svg>