<svg xmlns="http://www.w3.org/2000/svg" viewBox="0 0 24 24">
  <path d="M16.111328 1.6191406L13.007812 4.1445312L8.9589844 5.3886719L8.9394531 5.3964844C8.0849161 5.6974007 7.3992601 6.350706 7.0585938 7.1914062L6.3183594 9.015625 A 1.0001 1.0001 0 0 0 6.2382812 9.0898438L0.66210938 14.957031L6.9335938 22.480469L8.4140625 21L15 21C16.64497 21 18 19.64497 18 18L18 14.5 A 1.0001 1.0001 0 0 0 18.128906 14.394531L23.220703 9.6289062L16.111328 1.6191406 z M 15.888672 4.3808594L20.431641 9.5L17.933594 11.839844C17.836511 10.27959 16.582804 9 15 9L9.8789062 9L8.7207031 11.478516C8.5012429 11.910996 8.0159609 12.106338 7.5605469 11.945312L7.3203125 11.861328L8.9121094 7.9433594C9.037443 7.6340596 9.2880524 7.3942893 9.6035156 7.2832031L13.966797 5.9414062L15.888672 4.3808594 z M 11.152344 11L15 11C15.56503 11 16 11.43497 16 12L16 18C16 18.56503 15.56503 19 15 19L7.5859375 19L7.0664062 19.519531L3.3378906 15.042969L5.0957031 13.195312L6.8945312 13.830078C8.2831173 14.321053 9.8373666 13.698285 10.503906 12.384766L10.511719 12.369141L11.152344 11 z" />
</svg>