<svg xmlns="http://www.w3.org/2000/svg" viewBox="0 0 24 24">
  <path d="M4 2C4 3.3333333 4.8142205 4.2752743 5.5527344 4.6445312C6.2912483 5.0137882 7 5 7 5L11 5L11 7.0996094C7.0621614 7.6236179 4 10.98537 4 15.0625L4 20C4 21.093063 4.9069372 22 6 22L18 22C19.093063 22 20 21.093063 20 20L20 15.0625C20 10.98537 16.937839 7.6236182 13 7.0996094L13 5L17 5C17 5 17.708752 5.013788 18.447266 4.6445312C19.18578 4.2752744 20 3.3333333 20 2L18 2C18 2.6666667 17.81422 2.7247257 17.552734 2.8554688C17.291248 2.9862117 17 3 17 3L7 3C7 3 6.7087517 2.9862118 6.4472656 2.8554688C6.1857795 2.7247256 6 2.6666667 6 2L4 2 z M 12 9.0117188C15.328661 9.0470117 18 11.72515 18 15.0625L18 20L6 20L6 15.0625C6 11.72515 8.6713389 9.0470114 12 9.0117188 z M 12 11C9.794 11 8 12.794 8 15C8 17.206 9.794 19 12 19C14.206 19 16 17.206 16 15C16 14.26 15.785594 13.575469 15.433594 12.980469L12.707031 15.707031C12.512031 15.902031 12.256 16 12 16C11.744 16 11.487969 15.902031 11.292969 15.707031C10.901969 15.316031 10.901969 14.683969 11.292969 14.292969L14.019531 11.566406C13.424531 11.214406 12.74 11 12 11 z"  />
</svg>