<svg xmlns="http://www.w3.org/2000/svg" viewBox="0 0 24 24">
  <path d="M14.736328 2.0273438C13.973839 2.0273438 13.211347 2.3159964 12.636719 2.890625L2.890625 12.636719C1.7123823 13.814981 1.6808384 15.780491 2.9375 16.880859L7.1660156 21.111328C8.3152729 22.260585 10.215977 22.260585 11.365234 21.111328L21.111328 11.365234C22.260585 10.215977 22.260585 8.3152729 21.111328 7.1660156L16.835938 2.890625C16.261309 2.3159964 15.498817 2.0273437 14.736328 2.0273438 z M 14.736328 3.9726562C14.968339 3.9726562 15.198551 4.0833161 15.419922 4.3046875L19.697266 8.5800781C20.140008 9.0228208 20.140008 9.5084292 19.697266 9.9511719L9.9511719 19.697266C9.5084292 20.140008 9.0228208 20.140008 8.5800781 19.697266L4.28125 15.398438L4.2558594 15.375C3.921008 15.081795 3.8903247 14.462673 4.3027344 14.050781L4.3046875 14.050781L5.5273438 12.828125L8.5566406 15.931641L9.9882812 14.535156L6.9414062 11.414062L8.5117188 9.84375L10.083984 11.533203L11.548828 10.169922L9.9277344 8.4277344L11.537109 6.8183594L14.632812 9.9140625L16.046875 8.4980469L12.953125 5.4023438L14.050781 4.3046875C14.272153 4.0833161 14.504317 3.9726562 14.736328 3.9726562 z"  />
</svg>