<svg xmlns="http://www.w3.org/2000/svg" viewBox="0 0 24 24">
  <path d="M12 2C7.593562 2 4 5.593562 4 10L4 11L4 11.902344C3.426291 12.449411 3 13.153146 3 14C3 15.241968 3.8575508 16.162904 4.9433594 16.613281C6.2443933 19.723094 8.8502365 22 12 22L15 22L15 20L12 20C9.7415517 20 7.6909574 18.299502 6.6601562 15.613281L6.4472656 15.0625L5.8613281 14.980469C5.3688308 14.912712 5 14.515121 5 14C5 13.615008 5.1944088 13.312973 5.4980469 13.138672L6 12.851562L6 12L6 11C6 10.43497 6.4349698 10 7 10L17 10C17.56503 10 18 10.43497 18 11L18 12L18 16L13.912109 16 A 1.5 1.5 0 0 0 12.5 15 A 1.5 1.5 0 0 0 11 16.5 A 1.5 1.5 0 0 0 12.392578 17.994141 A 1.0001 1.0001 0 0 0 12.5 18L19 18L20 18C21.1 18 22 17.1 22 16L22 14C22 12.9 21.1 12 20 12L20 11L20 10C20 5.593562 16.406438 2 12 2 z M 12 4C14.655588 4 16.890622 5.7073783 17.685547 8.0878906C17.464195 8.0350364 17.236504 8 17 8L7 8C6.7634959 8 6.5358051 8.0350364 6.3144531 8.0878906C7.1093779 5.7073783 9.3444124 4 12 4 z"  />
</svg>