<svg xmlns="http://www.w3.org/2000/svg" viewBox="0 0 24 24">
  <path d="M11 0L11 3L13 3L13 0L11 0 z M 3.7070312 2.2929688L2.2929688 3.7070312L6.4082031 7.8222656C5.530809 8.9891318 5 10.430148 5 12C5 15.859 8.141 19 12 19C13.569852 19 15.010868 18.469191 16.177734 17.591797L20.292969 21.707031L21.707031 20.292969L17.597656 16.183594C17.601814 16.178044 17.607186 16.173531 17.611328 16.167969L16.177734 14.732422C16.173646 14.73865 16.168177 14.743791 16.164062 14.75L9.25 7.8359375C9.256209 7.8318226 9.26135 7.8263537 9.2675781 7.8222656L7.8320312 6.3886719C7.8264689 6.3928137 7.8219561 6.398186 7.8164062 6.4023438L3.7070312 2.2929688 z M 19.777344 2.8085938L17.65625 4.9296875L19.070312 6.34375L21.191406 4.2226562L19.777344 2.8085938 z M 12 5C11.185 5 10.406734 5.1462969 9.6777344 5.4042969L11.339844 7.0664062C11.557844 7.0374063 11.774 7 12 7C14.757 7 17 9.243 17 12C17 12.226 16.962594 12.442156 16.933594 12.660156L18.595703 14.322266C18.853703 13.594266 19 12.815 19 12C19 8.141 15.859 5 12 5 z M 7.8378906 9.2519531L14.748047 16.162109C13.959005 16.687071 13.017536 17 12 17C9.243 17 7 14.757 7 12C7 10.982464 7.3129286 10.040995 7.8378906 9.2519531 z M 0 11L0 13L3 13L3 11L0 11 z M 21 11L21 13L24 13L24 11L21 11 z M 4.9296875 17.65625L2.8085938 19.777344L4.2226562 21.191406L6.34375 19.070312L4.9296875 17.65625 z M 11 21L11 24L13 24L13 21L11 21 z" />
</svg>