<svg xmlns="http://www.w3.org/2000/svg" viewBox="0 0 24 24">
  <path d="M12 2C8.03 2.021 4.131625 3.5968906 1.265625 6.4628906C0.841625 6.8868906 0.989625 7.4495625 1.265625 7.7265625L3.4824219 9.9414062C3.6574219 10.116406 3.8852344 10.205078 4.1152344 10.205078C4.3362344 10.205078 4.5594219 10.122031 4.7324219 9.9570312C5.1404219 9.5690313 5.6631563 9.0920313 6.0351562 8.8320312C6.4371563 8.5500312 6.9676563 8.2566406 7.3476562 8.0566406C7.6456562 7.8996406 7.8280781 7.5909062 7.8300781 7.2539062L7.8398438 4.4609375C9.3018437 4.0069375 10.657938 3.8242187 11.960938 3.8242188L12 3.8242188L12.039062 3.8242188C13.343063 3.8242188 14.698156 4.0069375 16.160156 4.4609375L16.169922 7.2539062C16.170922 7.5909062 16.354344 7.8996406 16.652344 8.0566406C17.031344 8.2566406 17.561844 8.5480781 17.964844 8.8300781C18.336844 9.0900781 18.860578 9.5690312 19.267578 9.9570312C19.440578 10.122031 19.663766 10.203125 19.884766 10.203125C20.113766 10.203125 20.342578 10.116406 20.517578 9.9414062L22.734375 7.7246094C23.011375 7.4486094 23.159375 6.8868906 22.734375 6.4628906C19.868375 3.5968906 15.97 2.021 12 2 z M 5.8359375 5.5546875L5.8320312 6.6054688C5.4660313 6.8134687 5.1497188 7.0093594 4.8867188 7.1933594C4.6747188 7.3413594 4.4304375 7.53725 4.1484375 7.78125L3.4960938 7.1289062C4.2170938 6.5219062 5.0039375 5.9946875 5.8359375 5.5546875 z M 18.164062 5.5566406C18.996063 5.9956406 19.782906 6.5219062 20.503906 7.1289062L19.851562 7.78125C19.569562 7.53725 19.325281 7.3413594 19.113281 7.1933594C18.851281 7.0093594 18.533969 6.8134688 18.167969 6.6054688L18.164062 5.5566406 z M 9 7L9 9L4.7519531 12.398438C4.2769531 12.777437 4 13.352938 4 13.960938L4 19L3 19L3 21L21 21L21 19L20 19L20 13.960938C20 13.352937 19.723047 12.778437 19.248047 12.398438L15 9L15 7L13 7L13 9L11 9L11 7L9 7 z M 9.7011719 11L14.298828 11L18 13.960938L18 19L6 19L6 13.960938L9.7011719 11 z M 9 13 A 1 1 0 0 0 8 14 A 1 1 0 0 0 9 15 A 1 1 0 0 0 10 14 A 1 1 0 0 0 9 13 z M 12 13 A 1 1 0 0 0 11 14 A 1 1 0 0 0 12 15 A 1 1 0 0 0 13 14 A 1 1 0 0 0 12 13 z M 15 13 A 1 1 0 0 0 14 14 A 1 1 0 0 0 15 15 A 1 1 0 0 0 16 14 A 1 1 0 0 0 15 13 z M 9 16 A 1 1 0 0 0 8 17 A 1 1 0 0 0 9 18 A 1 1 0 0 0 10 17 A 1 1 0 0 0 9 16 z M 12 16 A 1 1 0 0 0 11 17 A 1 1 0 0 0 12 18 A 1 1 0 0 0 13 17 A 1 1 0 0 0 12 16 z M 15 16 A 1 1 0 0 0 14 17 A 1 1 0 0 0 15 18 A 1 1 0 0 0 16 17 A 1 1 0 0 0 15 16 z"  />
</svg>