<svg xmlns="http://www.w3.org/2000/svg" xml:space="preserve" width="0.660654in" height="0.590543in" version="1.1" style="shape-rendering:geometricPrecision; text-rendering:geometricPrecision; image-rendering:optimizeQuality; fill-rule:evenodd; clip-rule:evenodd"
viewBox="0 0 434.81 388.67">
  <path d="M160.36 253.07l-47.77 27.6 34.93 45.82 17.98 -32.48 -7.49 -5.42 2.35 -35.53zm85.51 2.08c-8.82,-5.44 -47.17,-7.26 -57.15,0 8.26,8.42 16.41,11.62 24.6,19.53l-0.3 18.48c-6.14,3.02 -11.94,4.96 -18.52,7.53 -12.18,4.75 -8.88,2.82 -19.49,-1.51 -4.1,4.22 -15.05,23.05 -21.47,35.23 16.69,21.9 30.51,50.21 59.17,54.25l-0.1 -54.4c-6.8,-3.44 -19.52,-18.39 -23.47,-25.07 15.2,-1.68 44.02,-7.4 56.42,2.03 -28.6,31.06 -23.74,9.26 -23.45,77.15 26.34,-1.12 44.27,-34.47 59.14,-53.98 -6.78,-12.7 -18.08,-31.47 -21.45,-35.57 -7.91,3.81 -8.61,6 -18.93,2.03 -6.1,-2.35 -12.64,-5.84 -19.21,-7.83 -0.38,-30.53 2.96,-17.97 24.19,-37.87zm76.25 25.65l-48.48 -27.51 0.48 37.39c-1.78,1.41 -3.62,2.65 -5.48,3.95l18.85 31.61 34.64 -45.44zm-49.64 -40.52c2.41,2.75 33.04,20.91 55.13,33.31l31.73 -41.62 2.27 -12.47 -67.61 -0.06c-6.54,4.2 -19.55,14.75 -21.52,20.85zm30.86 -29.96l5.25 -4.88 -5.42 -33.92 112.23 -67.43 19.41 28.86 -59.26 77.19 -72.21 0.17zm-2.6 -49.66c-3.02,-23.33 -12.22,-13.15 -27.47,-33.99l42.61 -72.89 65.7 0 29.22 43.47c-30.03,17.74 -82.41,54.57 -110.06,63.41zm-49.78 -49.61c7.22,4.92 9.2,7.83 15.73,10.56l58.16 -105.38 -74.93 35.16 -27.78 -51.13 0 -0.17 -0.1 0 -0.05 -0.09 0 0.09 -9.31 0 -0.21 0 0 0.37 -29.46 50.94 -74.94 -35.16 60.62 105.31c6.71,-3.47 8.12,-6.44 15.62,-10.06l28.2 14.59 9.42 -0.09 29.03 -14.93zm-116.9 49.61c3.02,-23.33 12.22,-13.15 27.47,-33.99l-42.61 -72.89 -65.7 0 -29.22 43.47c30.03,17.74 82.4,54.57 110.06,63.41zm-26.91 112.88c21.51,-11.66 51.22,-29.45 55.04,-33.26 -3.22,-6.94 -15.11,-18.63 -22.5,-20.86l-66.37 0.11 2.3 12.65 31.53 41.37zm24.31 -63.22l-5.25 -4.88 5.42 -33.92 -112.23 -67.43 -19.4 28.86 59.26 77.19 72.2 0.17zm31.54 -28.62c10.62,4.99 18.9,10.27 30.46,6.6l-1.27 16.37 9.23 -23.65 -46.11 -12.85c6.83,4.21 5.93,4.52 7.7,13.53zm70.46 -0.63c2.05,6.48 4.38,15.19 8.64,20.89l-0.7 -13.42c13.62,3.43 17.45,-2.26 30.26,-5.98 1.06,-6.79 2.11,-11.9 8.18,-13.68 -7.19,-0.13 -41.07,9.25 -46.38,12.18z"/>

</svg>
