<svg xmlns="http://www.w3.org/2000/svg" xml:space="preserve" width="1.50175in" height="0.511811in" version="1.1" style="shape-rendering:geometricPrecision; text-rendering:geometricPrecision; image-rendering:optimizeQuality; fill-rule:evenodd; clip-rule:evenodd"
viewBox="0 0 1009.73 344.13">

  <g>
   <path  d="M1000.06 67.23c1.79,0 3.71,1.79 5.73,5.36 0.2,0.3 0.3,0.81 0.3,1.45l0 0.57c-0.74,3.57 -1.52,5.36 -2.39,5.36 -0.24,0 -1.55,-1.15 -3.91,-3.47l-1.52 -0.57c-2.63,0 -5.25,7.71 -7.81,23.14 -1.72,4.78 -3.03,7.18 -3.98,7.18 -0.57,0 -1.18,-2.29 -1.79,-6.84 -2.69,-7.92 -5.12,-13.07 -7.24,-15.4l-0.98 0 -1.48 1.18 -0.91 0c-1.95,0 -4.18,-1.92 -6.64,-5.76l0 -0.61c2.05,-4.25 3.67,-6.74 4.85,-7.55l0.61 0c6.6,0 11.56,7.51 14.79,22.51l0 0.3 0.27 0c2.86,-17.89 6.87,-26.85 12.09,-26.85z"/>
   <path  d="M804.76 97.04c-4.78,15.28 -7.15,25.61 -7.15,31.07 0,5.4 1.59,8.13 4.78,8.13 2.36,0 4.88,-3.19 7.56,-9.57l0.31 0 0.62 0.77c-2.21,12.03 -5.35,18.05 -9.57,18.05l-1.49 0c-3.09,0 -5.25,-1.85 -6.53,-5.61 -0.21,-1.54 -0.31,-2.73 -0.31,-3.65l0 -4.99c0,-10.03 3.65,-21.45 11.01,-34.2l0.77 0z"/>
   <path   d="M856.63 88.28l0 3.81c0,5.91 -1.39,10.39 -4.16,13.37l-0.31 0c-0.51,0 -0.77,-0.31 -0.77,-1.03 0.72,-3.7 1.03,-7.05 1.03,-9.93 0,-9.46 -5.71,-19.29 -17.18,-29.57 0.31,-1.9 1.7,-4.42 4.06,-7.51l0.46 0c11.27,8.43 16.87,18.72 16.87,30.86z"/>
   <path   d="M764.27 278.3l0 2.62c-1.26,7.73 -3.18,11.62 -5.76,11.62l-1.36 0c-1.45,0 -3.79,-0.56 -6.98,-1.73 -3.61,3.61 -7.17,5.39 -10.73,5.39l-0.7 0c-4.69,-0.84 -7.35,-1.22 -8.1,-1.22 -7.96,0 -17.57,6.28 -28.85,18.83 -6.33,6.04 -11.57,9.09 -15.79,9.09 0,0.24 -1.03,0.52 -3.14,0.84l-0.28 -0.56c6.42,-3.47 12.27,-7.68 17.57,-12.51 11.99,-13.77 19.49,-20.94 22.39,-21.45 3.28,-2.06 6.98,-3.09 11.01,-3.09l8.1 1.64 1.5 0c2.86,0 5.81,-3.14 8.94,-9.42l0.8 -0.56 0.7 0c0.47,0 0.7,0.19 0.7,0.56l0 0.42c0,0.84 -0.47,2.34 -1.41,4.5 1.03,0.56 2.62,0.84 4.83,0.84l2.71 0 -0.93 -4.49c0,-1.22 0.89,-2.9 2.72,-5.06l0.23 0c1.22,0.75 1.83,1.97 1.83,3.75z"/>
   <path   d="M679.44 164.46c-5.3,16.87 -7.92,28.23 -7.92,34.05 0,5.81 1.75,8.74 5.24,8.74 2.57,0 5.35,-2.98 8.33,-8.95l0.31 0 0.62 0.88c-2.42,13.01 -5.91,19.49 -10.54,19.49l-1.65 0c-3.45,0 -5.81,-2.26 -7.1,-6.84 -0.31,-1.95 -0.46,-3.45 -0.46,-4.58l0 -5.4c0,-10.85 4.07,-23.35 12.24,-37.39l0.93 0z"/>
   <path   d="M676.31 108.8l0 3.76c0,5.91 -1.39,10.39 -4.17,13.42l-0.31 0c-0.51,0 -0.77,-0.36 -0.77,-1.08 0.72,-3.7 1.03,-7.05 1.03,-9.92 0,-9.46 -5.71,-19.29 -17.23,-29.52 0.31,-1.95 1.65,-4.42 4.07,-7.56l0.46 0c11.26,8.43 16.92,18.72 16.92,30.91z"/>
   <path   d="M508.14 344.13c-3.75,0 -5.66,-2.78 -5.66,-8.28l0 -4.11c0,-8.03 3.09,-17.23 9.21,-27.62l0.62 0c-4.06,12.5 -6.12,20.88 -6.12,25.2 0,4.32 1.34,6.48 4.06,6.48 2.01,0 4.11,-2.26 6.43,-6.79l0.26 0 0.36 0.46c-1.85,9.77 -4.48,14.66 -7.92,14.66l-1.23 0z"/>
   <path   d="M604.94 321.75c-3.7,0 -5.56,-2.78 -5.56,-8.28l0 -4.11c0,-8.02 2.99,-17.23 9,-27.57l0.62 0c-3.96,12.45 -5.91,20.83 -5.91,25.15 0,4.32 1.33,6.48 3.96,6.48 1.9,0 4.01,-2.26 6.22,-6.79l0.26 0 0.36 0.46c-1.8,9.77 -4.37,14.66 -7.76,14.66l-1.18 0z"/>
   <path   d="M565.89 89.22c-3.7,0 -5.56,-2.78 -5.56,-8.33l0 -4.06c0,-8.08 2.99,-17.28 9,-27.67l0.62 0c-3.96,12.45 -5.91,20.83 -5.91,25.2 0,4.37 1.33,6.53 3.96,6.53 1.9,0 4.01,-2.26 6.22,-6.79l0.26 0 0.36 0.31c-1.8,9.88 -4.37,14.81 -7.76,14.81l-1.18 0z"/>
   <path   d="M282.63 139.52c-3.7,0 -5.55,-2.78 -5.55,-8.33l0 -4.07c0,-8.07 2.98,-17.28 9,-27.67l0.62 0c-3.96,12.45 -5.91,20.83 -5.91,25.2 0,4.37 1.34,6.54 3.96,6.54 1.9,0 4.01,-2.27 6.22,-6.79l0.26 0 0.36 0.31c-1.8,9.88 -4.37,14.81 -7.77,14.81l-1.18 0z"/>
   <path   d="M756.25 118.93c2.52,0 5.14,2.47 7.92,7.46 0.2,0.51 0.31,1.18 0.31,2.11l0 0.87c-0.93,4.99 -2.01,7.46 -3.29,7.46 -0.31,0 -2.11,-1.54 -5.35,-4.68l-2.11 -0.88c-3.7,0 -7.3,10.75 -10.9,32.25 -2.42,6.69 -4.06,10.03 -5.09,10.03 -0.98,0 -1.96,-3.04 -2.88,-9.05 -3.91,-10.6 -7.3,-17.44 -10.23,-20.57l-1.39 0 -2.11 1.65 -1.23 0c-2.83,0 -5.97,-2.83 -9.41,-8.59l0 -0.98c2.98,-6.38 5.24,-10.18 6.84,-11.52l0.93 0c9.26,0 16.2,10.55 20.83,31.63l0 0.46 0.46 0c3.91,-25.1 9.46,-37.65 16.71,-37.65z"/>
   <path   d="M347.73 305.76c-3.71,0 -5.56,-2.78 -5.56,-8.28l0 -4.11c0,-8.02 2.98,-17.23 9,-27.57l0.62 0c-3.96,12.45 -5.91,20.83 -5.91,25.15 0,4.32 1.34,6.48 3.96,6.48 1.9,0 4.01,-2.26 6.22,-6.79l0.26 0 0.36 0.47c-1.8,9.77 -4.37,14.65 -7.76,14.65l-1.18 0z"/>
   <path   d="M248.15 174.47l0 1.49c0,4.82 -2.65,12.33 -7.94,22.52l-0.65 3.19c0,4.02 1.45,6.05 4.35,6.05 1.92,0 4.06,-1.67 6.35,-5l1.02 0c-1.85,7.69 -4.57,11.53 -8.2,11.53l-1.6 0c-3.73,-0.51 -5.62,-3.26 -5.62,-8.23l0 -0.73c0,-4.28 2.43,-11.13 7.29,-20.63 0.51,-2.39 0.8,-4.17 0.8,-5.29l0 -1.7c0,-6.6 -4.61,-13.2 -13.82,-19.87l0 -0.33c1.34,-2.18 2.65,-3.84 3.92,-4.97l0.43 0c9.1,5.29 13.67,12.62 13.67,21.97z"/>
   <path   d="M561.34 196.91l0 2.11c0,6.84 -3.75,17.48 -11.26,31.94l-0.93 4.53c0,5.71 2.06,8.59 6.17,8.59 2.73,0 5.76,-2.37 9,-7.1l1.44 0c-2.62,10.9 -6.48,16.36 -11.62,16.36l-2.27 0c-5.29,-0.72 -7.97,-4.63 -7.97,-11.68l0 -1.03c0,-6.07 3.44,-15.79 10.33,-29.27 0.72,-3.39 1.13,-5.91 1.13,-7.51l0 -2.42c0,-9.36 -6.53,-18.72 -19.6,-28.18l0 -0.46c1.91,-3.08 3.76,-5.45 5.56,-7.04l0.62 0c12.91,7.51 19.39,17.9 19.39,31.17z"/>
   <path   d="M920.34 42l0 1.42c0,4.59 -2.52,11.74 -7.56,21.44l-0.62 3.04c0,3.83 1.38,5.77 4.14,5.77 1.83,0 3.87,-1.59 6.04,-4.77l0.97 0c-1.76,7.32 -4.35,10.98 -7.81,10.98l-1.52 0c-3.56,-0.48 -5.35,-3.11 -5.35,-7.84l0 -0.69c0,-4.07 2.31,-10.6 6.94,-19.65 0.48,-2.28 0.76,-3.97 0.76,-5.04l0 -1.62c0,-6.28 -4.38,-12.57 -13.15,-18.92l0 -0.31c1.28,-2.07 2.52,-3.66 3.73,-4.73l0.41 0c8.67,5.04 13.02,12.02 13.02,20.93z"/>
   <path   d="M368.2 231.57c-3.7,0 -5.55,-2.78 -5.55,-8.33l0 -4.07c0,-8.07 2.98,-17.28 9,-27.67l0.62 0c-3.96,12.5 -5.92,20.93 -5.92,25.25 0,4.32 1.34,6.48 3.96,6.48 1.9,0 4.01,-2.26 6.22,-6.79l0.26 0 0.36 0.62c-1.8,9.67 -4.37,14.5 -7.77,14.5l-1.18 0z"/>
   <path   d="M232.53 0l2.26 0c3.8,0 6.02,2.42 6.74,7.25l0 3.14c0,9.72 -7.66,20.73 -23.04,33.02l-2.26 0.41 0 -0.41c12.34,-13.48 18.51,-22.22 18.51,-26.23l0 -0.46c0,-1.8 -0.92,-3.14 -2.78,-4.06l-4.16 0c-1.13,0 -2.83,0.77 -5.09,2.26 -0.62,0 -0.93,-0.46 -0.93,-1.34 1.6,-9.05 5.2,-13.58 10.75,-13.58z"/>
   <path   d="M71.93 141.98c1.42,0 2.97,1.45 4.61,4.33 0.16,0.25 0.25,0.66 0.25,1.17l0 0.47c-0.57,2.89 -1.23,4.33 -1.91,4.33 -0.22,0 -1.28,-0.93 -3.19,-2.81l-1.23 -0.46c-2.13,0 -4.22,6.24 -6.3,18.73 -1.39,3.87 -2.45,5.81 -3.19,5.81 -0.49,0 -0.98,-1.85 -1.45,-5.53 -2.18,-6.41 -4.14,-10.58 -5.86,-12.46l-0.79 0 -1.2 0.96 -0.71 0c-1.58,0 -3.35,-1.56 -5.32,-4.66l0 -0.49c1.66,-3.44 2.97,-5.45 3.93,-6.11l0.49 0c5.32,0 9.27,6.08 11.86,18.21l0 0.25 0.25 0c2.29,-14.48 5.54,-21.73 9.76,-21.73z"/>
   <path   d="M60.55 144.17c-2.97,0 -4.46,-2.23 -4.46,-6.68l0 -3.26c0,-6.44 2.43,-13.82 7.26,-22.11l0.53 0c-3.22,9.98 -4.83,16.7 -4.83,20.17 0,3.47 1.07,5.2 3.22,5.2 1.53,0 3.18,-1.82 4.95,-5.45l0.2 0 0.29 0.5c-1.44,7.75 -3.5,11.63 -6.23,11.63l-0.95 0z"/>
   <path   d="M264.14 65.07c-3.38,4.24 -6.53,7.73 -9.39,10.48 -2.92,2.75 -6.01,5.44 -9.34,7.96 -3.32,2.58 -6.99,5.44 -11.05,8.59 -4.12,3.15 -8.99,7.27 -14.72,12.43 -0.74,0.63 -2,1.95 -3.67,3.95 -1.66,1.95 -3.44,3.95 -5.27,6.01 -1.89,2.06 -3.66,3.89 -5.38,5.44 -1.72,1.6 -2.98,2.35 -3.78,2.35 -0.57,0 -0.86,-0.4 -0.86,-1.14 0,-0.46 0.29,-1.72 0.86,-3.72 0.46,-2.23 1.2,-4.7 2.35,-7.39 1.09,-2.69 2.35,-5.33 3.66,-7.96 1.38,-2.63 2.81,-5.1 4.3,-7.39 1.49,-2.29 2.92,-4.18 4.3,-5.79 3.89,-4.01 7.9,-7.73 11.91,-11.17 4.01,-3.38 7.9,-6.59 11.63,-9.56 3.78,-2.92 7.39,-5.78 10.82,-8.48 3.5,-2.63 6.65,-5.33 9.39,-8.02 0.92,-0.92 2.06,-1.95 3.38,-3.21 1.32,-1.2 2.69,-2.52 4.12,-3.84 1.38,-1.38 2.69,-2.69 3.95,-3.95 1.2,-1.32 2.23,-2.46 2.98,-3.44 1.03,-1.37 2,-2 2.86,-2 0.69,0 1.03,0.46 1.03,1.49 0,0.46 -0.06,0.97 -0.17,1.6 -0.11,0.63 -0.4,1.37 -0.86,2.23l-13.06 24.52zm-195.99 197.02c-1.95,6.13 -3.89,11.86 -5.96,17.18 -2.06,5.33 -4.53,10.82 -7.33,16.55 -2.23,4.47 -4.7,8.02 -7.45,10.65 -2.75,2.63 -6.53,4.58 -11.34,5.96 -1.43,0.34 -3.72,0.86 -6.82,1.66 -3.03,0.8 -6.24,1.6 -9.62,2.52 -3.38,0.86 -6.53,1.72 -9.45,2.52 -2.98,0.8 -5.04,1.32 -6.13,1.66 -0.11,0 -0.29,0.06 -0.46,0.12 -0.17,0.06 -0.34,0.06 -0.57,0.06 -0.57,0 -1.2,-0.12 -1.95,-0.4 -0.69,-0.29 -1.09,-0.8 -1.09,-1.6 0,-0.57 0.29,-1.26 0.74,-2.12 0.52,-0.8 1.43,-1.83 2.81,-3.09 6.13,-6.47 12.6,-12.71 19.36,-18.61 6.76,-5.96 13.4,-12.09 19.87,-18.44 3.26,-3.15 6.3,-6.41 9.11,-9.85 2.75,-3.38 5.38,-7.1 7.85,-11.17 2.46,-4.01 4.81,-8.53 6.99,-13.46 2.18,-4.98 4.24,-10.65 6.3,-16.9l11.57 -35.57c0.34,-1.78 0.8,-3.15 1.49,-4.01 0.69,-0.92 1.32,-1.38 1.83,-1.38 1.03,0 1.55,1.2 1.55,3.55 0,0.46 0,0.86 0,1.32 0,0.46 -0.06,0.97 -0.17,1.55 -0.23,1.09 -0.57,3.21 -1.03,6.24 -0.46,3.09 -0.86,6.53 -1.32,10.37 -0.46,3.78 -0.86,7.67 -1.2,11.63 -0.34,4.01 -0.46,7.39 -0.46,10.19 0,3.89 0.12,7.1 0.46,9.62l0.1 0.67 0.65 -0.78c0.97,3.03 2.18,6.07 3.61,9.16 1.37,3.09 3.04,5.9 4.98,8.42 2,2.52 4.24,4.53 6.76,6.13 2.52,1.55 5.38,2.35 8.65,2.35 4.24,0 7.96,-1.32 11.22,-3.9 3.21,-2.58 5.96,-5.67 8.19,-9.39 2.23,-3.67 4.01,-7.56 5.21,-11.57 0.37,-1.19 0.7,-2.33 0.97,-3.43l0 -0.29c0,-4.24 0.23,-8.36 0.63,-12.37 0.33,-3.91 0.82,-7.44 1.31,-10.71l0 -0.29c0.17,-6.36 0.34,-12.77 0.52,-19.3 0.17,-6.53 0.34,-12.94 0.52,-19.24 0.17,-6.24 0.4,-11.86 0.74,-16.72 0.57,-2.58 1.37,-5.5 2.46,-8.76 1.03,-3.21 2.12,-6.3 3.26,-9.22 0.34,-0.69 0.97,-2.29 2,-4.87 1.03,-2.58 2.12,-5.27 3.26,-8.13 1.2,-2.86 2.41,-5.38 3.61,-7.62 1.26,-2.23 2.18,-3.38 2.86,-3.38 0.57,0 0.86,1.09 0.86,3.21 0,0.86 -0.06,1.72 -0.11,2.41 -0.06,0.74 -0.06,1.2 -0.06,1.43 -0.57,9.85 -1.09,19.76 -1.55,29.78 -0.46,10.02 -0.63,19.24 -0.63,27.61 0,3.35 0,7.1 0.08,11.37 1.95,-2.29 3.87,-4.51 5.76,-6.67 5.78,-6.47 11.34,-12.49 16.66,-18.04 5.33,-5.55 10.6,-10.88 15.81,-16.04 5.15,-5.1 10.48,-10.19 15.81,-15.18 5.38,-4.98 11.11,-10.14 17.12,-15.52 12.89,-11.51 25.77,-22.62 38.78,-33.28 13,-10.71 26.06,-21.65 39.23,-32.82 0.34,-0.34 0.97,-0.92 1.89,-1.66 0.86,-0.8 1.83,-1.55 2.86,-2.29 0.97,-0.75 2,-1.38 2.98,-2.01 1.03,-0.63 1.83,-0.92 2.35,-0.92 0.23,0 0.4,0.06 0.52,0.17 0.11,0.11 0.17,0.29 0.17,0.51 0,0.29 -0.34,0.97 -1.03,2.01 -0.63,0.97 -1.95,2.75 -3.9,5.27 -2,2.52 -4.75,6.01 -8.42,10.6 -3.61,4.52 -8.42,10.54 -14.32,17.98l-71.02 72.68c-7.67,6.47 -13.69,11.51 -17.93,15.12 -4.24,3.55 -7.39,6.18 -9.34,7.85 -1.95,1.72 -3.09,2.75 -3.49,3.15 -0.4,0.34 -0.57,0.63 -0.57,0.74 0.51,-0.11 1.03,-0.17 1.37,-0.17 0.4,0 0.86,0 1.26,0 4.18,0 7.9,0.92 11.28,2.75 3.32,1.83 6.18,4.29 8.48,7.33 2.29,2.98 4.01,6.47 5.27,10.37 1.2,3.95 1.83,7.96 1.83,12.09 0,3.72 -0.34,7.9 -1.09,12.6 -0.75,4.7 -1.72,9.39 -2.92,14.09 -1.26,4.7 -2.69,9.16 -4.35,13.4 -1.72,4.3 -3.49,7.85 -5.39,10.77 -1.89,3.32 -4.06,6.59 -6.47,9.62 -2.41,3.09 -5.04,5.73 -7.96,8.02 -5.27,4.01 -11,6.01 -17.3,6.01 -2.92,0 -5.84,-0.51 -8.88,-1.49 -3.04,-1.03 -5.9,-2.52 -8.59,-4.53 -3.09,-2.35 -5.73,-5.33 -7.79,-8.82 -2.06,-3.55 -3.72,-7.45 -5.04,-11.68 -0.54,-1.82 -1.02,-3.69 -1.43,-5.59 -1.95,6.23 -4.16,12.02 -6.59,17.44 -2.75,6.07 -6.24,11.17 -10.48,15.35 -3.03,2.92 -6.18,4.98 -9.56,6.3 -3.32,1.26 -6.76,1.89 -10.25,1.89 -5.33,0 -10.36,-1.43 -15.01,-4.24 -4.64,-2.86 -8.48,-7.16 -11.45,-12.89 -3.38,-6.18 -5.15,-13.06 -5.36,-20.6l-1.22 1.01zm136.71 -35.39c-0.17,-2.81 -1.2,-5.38 -2.98,-7.73 -1.78,-2.35 -4.01,-4.35 -6.53,-6.07 -2.58,-1.66 -5.38,-2.98 -8.36,-3.95 -2.92,-0.92 -5.67,-1.43 -8.13,-1.43 -4.12,0 -8.42,0.97 -12.89,2.8 -4.47,1.83 -8.19,4.93 -11.11,9.28 0.11,6.53 1.32,12.43 3.61,17.75 2.29,5.27 5.5,9.22 9.51,11.8 1.03,0.57 2.18,1.2 3.49,1.95 1.37,0.69 3.21,1.09 5.55,1.09 1.78,0 3.9,-0.34 6.24,-1.03 2.63,-0.74 5.27,-2 7.85,-3.66 2.58,-1.72 4.87,-3.67 6.87,-5.9 2,-2.24 3.66,-4.64 4.98,-7.22 1.26,-2.58 1.89,-5.16 1.89,-7.67zm74.86 -45.99c1.55,0 2.58,0.52 3.03,1.49 0.4,1.03 0.63,1.83 0.63,2.52 0,8.42 -0.29,17.24 -0.92,26.57 -0.57,9.39 -1.6,18.79 -2.98,28.3 -1.43,9.51 -3.26,18.84 -5.55,28.01 -2.29,9.22 -5.1,17.81 -8.48,25.89 -1.03,2.35 -2.86,4.53 -5.61,6.53 -2.75,2.01 -5.96,3.89 -9.68,5.61 -3.67,1.72 -7.62,3.26 -11.8,4.64 -4.18,1.32 -8.19,2.46 -12.03,3.44 -3.78,0.92 -7.16,1.66 -10.14,2.18 -2.98,0.46 -5.1,0.75 -6.47,0.75 -0.74,0 -1.6,-0.17 -2.4,-0.4 -0.86,-0.29 -1.26,-0.74 -1.26,-1.26 0,-0.8 0.69,-1.89 2,-3.21 1.32,-1.38 3.15,-2.92 5.38,-4.81 2.24,-1.83 4.81,-3.89 7.79,-6.19 2.98,-2.29 6.07,-4.81 9.33,-7.44 9.05,-7.39 16.09,-15.12 21.19,-23.26 5.1,-8.13 8.99,-16.55 11.74,-25.26 2.75,-8.71 4.81,-17.76 6.13,-27.04 1.37,-9.28 2.86,-18.84 4.52,-28.69 0.11,-0.74 0.34,-1.66 0.63,-2.58 0.23,-0.97 0.63,-1.83 1.09,-2.69 0.4,-0.86 0.97,-1.55 1.55,-2.18 0.63,-0.63 1.38,-0.92 2.29,-0.92zm56.91 0c1.54,0 2.58,0.52 3.03,1.49 0.4,1.03 0.63,1.83 0.63,2.52 0,8.42 -0.29,17.24 -0.92,26.57 -0.57,9.39 -1.6,18.79 -2.98,28.3 -1.43,9.51 -3.27,18.84 -5.56,28.01 -2.29,9.22 -5.1,17.81 -8.48,25.89 -1.03,2.35 -2.86,4.53 -5.61,6.53 -2.75,2.01 -5.96,3.89 -9.68,5.61 -3.66,1.72 -7.62,3.26 -11.8,4.64 -4.18,1.32 -8.19,2.46 -12.03,3.44 -3.78,0.92 -7.16,1.66 -10.14,2.18 -2.98,0.46 -5.1,0.75 -6.47,0.75 -0.74,0 -1.6,-0.17 -2.41,-0.4 -0.86,-0.29 -1.26,-0.74 -1.26,-1.26 0,-0.8 0.69,-1.89 2,-3.21 1.32,-1.38 3.15,-2.92 5.38,-4.81 2.24,-1.83 4.81,-3.89 7.79,-6.19 2.98,-2.29 6.07,-4.81 9.34,-7.44 9.05,-7.39 16.09,-15.12 21.19,-23.26 5.1,-8.13 8.99,-16.55 11.74,-25.26 2.75,-8.71 4.81,-17.76 6.13,-27.04 1.38,-9.28 2.86,-18.84 4.53,-28.69 0.11,-0.74 0.34,-1.66 0.63,-2.58 0.23,-0.97 0.63,-1.83 1.09,-2.69 0.4,-0.86 0.97,-1.55 1.55,-2.18 0.63,-0.63 1.37,-0.92 2.29,-0.92zm-18.82 -43.63c3.38,-4.24 6.93,-8.65 10.71,-13.12 3.72,-4.47 7.04,-8.42 9.97,-11.91 0.57,-0.52 0.97,-0.8 1.32,-0.8 0.46,0 1.26,0.4 2.35,1.15 2.92,2 6.13,4.3 9.56,6.87 3.49,2.58 6.81,5.1 10.08,7.56 0.57,0.57 1.09,1.03 1.49,1.37 0.46,0.29 0.69,0.69 0.69,1.15 0,0.34 -0.34,0.97 -0.97,1.83l-20.33 24.51c-0.23,0.34 -0.51,0.69 -0.92,1.09 -0.4,0.4 -0.69,0.57 -0.92,0.57 -0.46,0 -1.15,-0.23 -2,-0.8 -3.15,-2.12 -6.53,-4.58 -10.08,-7.39 -3.61,-2.81 -6.99,-5.67 -10.25,-8.59 -1.09,-0.86 -1.66,-1.55 -1.66,-2.01 0,-0.23 0.12,-0.46 0.35,-0.74 0.23,-0.29 0.46,-0.52 0.63,-0.74z"/>
   <path   d="M543.28 144.35c-1.33,-1.33 -2.76,-2.46 -4.24,-3.3 -1.47,-0.89 -3.2,-1.33 -5.12,-1.33 -1.43,0 -3.4,0.84 -5.91,2.56 -2.51,1.68 -5.27,3.89 -8.22,6.6 -3,2.76 -6.01,5.86 -9.11,9.31 -3.05,3.49 -5.86,6.94 -8.42,10.39 -2.56,3.49 -4.63,6.74 -6.21,9.9 -1.57,3.1 -2.36,5.76 -2.36,7.88 0,2.12 0.64,3.79 1.92,5.12 1.28,1.28 2.9,2.27 4.78,3 1.87,0.74 3.89,1.23 6.11,1.43 2.22,0.25 4.24,0.39 6.05,0.39 0.79,0 1.58,0 2.32,0 0.79,0 1.48,-0.05 2.02,-0.15 1.28,1.43 2.31,3.55 3.2,6.35 0.84,2.76 1.58,5.76 2.17,8.91 0.54,3.2 0.98,6.36 1.23,9.46 0.2,3.15 0.34,5.76 0.34,7.88 0,7.29 -1.03,14.82 -3.05,22.51 -2.02,7.68 -4.83,15.22 -8.52,22.55 -3.64,7.39 -7.98,14.33 -13.05,20.93 -5.02,6.6 -10.63,12.36 -16.79,17.33 -6.16,4.93 -12.7,8.87 -19.7,11.77 -6.94,2.86 -14.18,4.28 -21.72,4.28 -7.88,0 -14.87,-1.48 -20.98,-4.43 -6.1,-3.01 -11.28,-7.1 -15.46,-12.26 -4.13,-5.22 -7.34,-11.38 -9.55,-18.47 -2.22,-7.14 -3.35,-14.87 -3.35,-23.24 0,-8.77 0.88,-17.78 2.61,-27.04 1.72,-9.31 3.84,-18.17 6.35,-26.64 1.52,-5.02 3.1,-9.7 4.78,-14.13 1.63,-4.43 3.2,-8.42 4.73,-11.97 1.58,-3.55 2.95,-6.65 4.29,-9.26 1.28,-2.56 2.31,-4.53 3.1,-5.91 0.94,-1.63 1.78,-2.81 2.51,-3.55 0.74,-0.69 1.33,-1.08 1.82,-1.08 0.54,0 0.99,0.44 1.28,1.33 0.3,0.83 0.44,1.97 0.44,3.3 0,1.08 -0.1,2.22 -0.25,3.4 -0.15,1.18 -0.39,2.36 -0.79,3.54 -1.63,5.56 -3.4,11.08 -5.32,16.6 -1.92,5.47 -3.74,10.98 -5.42,16.59 -1.68,5.56 -3.1,11.18 -4.19,16.79 -1.09,5.61 -1.68,11.37 -1.68,17.23 0,4.83 0.69,9.85 2.12,15.17 1.38,5.27 3.64,10.15 6.8,14.63 3.1,4.48 7.24,8.18 12.36,11.03 5.17,2.9 11.48,4.33 19.01,4.33 7.68,0 15.41,-1.43 23.19,-4.33 7.83,-2.86 14.87,-6.85 21.18,-11.92 6.26,-5.02 11.37,-11.03 15.36,-18.02 3.94,-6.95 5.91,-14.58 5.91,-22.85l0 -0.88c-11.18,-0.44 -19.26,-3.06 -24.23,-7.78 -5.02,-4.73 -7.53,-12.16 -7.53,-22.36 0,-3.64 0.29,-7.73 0.89,-12.26 1.13,-8.47 3.4,-16.65 6.74,-24.62 3.4,-7.93 7.49,-15.46 12.36,-22.65 4.88,-7.14 10.29,-13.88 16.3,-20.19 6.01,-6.3 12.26,-12.02 18.81,-17.23 1.92,-1.53 4.24,-2.86 6.84,-4.04 2.66,-1.13 5.37,-1.72 8.18,-1.72 0.88,0 1.82,0.15 2.81,0.44 1.04,0.29 1.97,0.69 2.81,1.14 0.88,0.49 1.58,1.04 2.12,1.67 0.49,0.64 0.79,1.33 0.79,2.07 0,1.18 -0.3,2.86 -0.79,5.02 -0.54,2.12 -1.23,4.53 -2.12,7.14 -0.84,2.56 -1.82,5.27 -2.95,7.98 -1.09,2.76 -2.22,5.27 -3.4,7.59 -1.13,2.31 -2.27,4.18 -3.3,5.71 -1.03,1.47 -2.02,2.27 -2.9,2.36zm34.95 -13.83c3.38,-4.24 6.93,-8.65 10.71,-13.12 3.72,-4.47 7.04,-8.42 9.97,-11.91 0.57,-0.52 0.97,-0.8 1.32,-0.8 0.46,0 1.26,0.4 2.35,1.15 2.92,2 6.13,4.3 9.56,6.87 3.5,2.58 6.82,5.1 10.08,7.56 0.57,0.57 1.09,1.03 1.49,1.37 0.46,0.29 0.69,0.69 0.69,1.15 0,0.34 -0.34,0.97 -0.97,1.83l-20.33 24.51c-0.23,0.34 -0.51,0.69 -0.92,1.09 -0.4,0.4 -0.69,0.57 -0.92,0.57 -0.46,0 -1.14,-0.23 -2,-0.8 -3.15,-2.12 -6.53,-4.58 -10.08,-7.39 -3.61,-2.81 -6.99,-5.67 -10.25,-8.59 -1.09,-0.86 -1.66,-1.55 -1.66,-2.01 0,-0.23 0.12,-0.46 0.34,-0.74 0.23,-0.29 0.46,-0.52 0.63,-0.74zm27.55 50.18c1.55,0 2.58,0.52 3.03,1.49 0.4,1.03 0.63,1.83 0.63,2.52 0,8.42 -0.29,17.24 -0.92,26.57 -0.57,9.39 -1.6,18.79 -2.98,28.3 -1.43,9.51 -3.26,18.84 -5.55,28.01 -2.29,9.22 -5.1,17.81 -8.48,25.89 -1.03,2.35 -2.86,4.53 -5.61,6.53 -2.75,2.01 -5.96,3.89 -9.68,5.61 -3.67,1.72 -7.62,3.26 -11.8,4.64 -4.18,1.32 -8.19,2.46 -12.03,3.44 -3.78,0.92 -7.16,1.66 -10.14,2.18 -2.98,0.46 -5.1,0.75 -6.47,0.75 -0.75,0 -1.61,-0.17 -2.41,-0.4 -0.86,-0.29 -1.26,-0.74 -1.26,-1.26 0,-0.8 0.69,-1.89 2,-3.21 1.32,-1.38 3.15,-2.92 5.38,-4.81 2.23,-1.83 4.81,-3.89 7.79,-6.19 2.98,-2.29 6.07,-4.81 9.33,-7.44 9.05,-7.39 16.09,-15.12 21.19,-23.26 5.1,-8.13 8.99,-16.55 11.74,-25.26 2.75,-8.71 4.81,-17.76 6.13,-27.04 1.37,-9.28 2.86,-18.84 4.52,-28.69 0.11,-0.74 0.34,-1.66 0.63,-2.58 0.23,-0.97 0.63,-1.83 1.09,-2.69 0.4,-0.86 0.97,-1.55 1.55,-2.18 0.63,-0.63 1.38,-0.92 2.29,-0.92zm44.82 55.87c0.52,3.09 1.36,6.02 2.52,8.74 1.2,2.8 2.75,5.27 4.7,7.39 1.95,2.12 4.35,3.78 7.22,5.04 2.86,1.2 6.3,1.83 10.31,1.83 3.84,0 7.62,-0.63 11.34,-1.95 3.72,-1.26 7.33,-2.93 10.71,-4.93 3.44,-2.06 6.7,-4.3 9.85,-6.81 3.15,-2.52 6.01,-5.04 8.7,-7.62 1.89,-1.95 3.84,-3.55 5.78,-4.87 1.95,-1.37 4.3,-2.01 6.99,-2.01 1.09,0 2.35,0.12 3.78,0.4 1.37,0.29 2.86,0.63 4.35,0.97 1.49,0.4 2.98,0.74 4.47,1.03 1.43,0.29 2.69,0.4 3.84,0.4 2,0 3.84,-0.57 5.56,-1.72 1.66,-1.2 3.15,-2.69 4.41,-4.47 1.32,-1.78 2.46,-3.72 3.44,-5.79 1.03,-2.06 1.89,-4.06 2.69,-5.95 0.8,-2 1.78,-3.67 3.04,-4.87 1.2,-1.2 2.29,-1.83 3.21,-1.83 0.97,0 1.49,0.69 1.49,2.18 0,1.09 -0.23,2.29 -0.69,3.5 -0.23,0.57 -0.46,1.32 -0.74,2.18 -0.29,0.91 -0.51,1.83 -0.74,2.8 -0.23,0.92 -0.4,1.78 -0.57,2.52 -0.17,0.69 -0.29,1.26 -0.29,1.6 0.57,0.12 1.15,0.17 1.77,0.23 0.63,0.06 1.2,0.06 1.78,0.06 4.35,0 7.73,-0.69 10.14,-2.06 2.41,-1.43 4.81,-3.84 7.27,-7.33 1.83,-2.47 3.32,-5.04 4.47,-7.85 1.2,-2.81 2.29,-5.56 3.26,-8.25 0.23,-0.57 0.57,-1.26 1.09,-2.18 0.51,-0.92 1.14,-1.32 1.95,-1.32 1.03,0 1.66,0.23 2,0.8 0.34,0.57 0.52,1.26 0.52,2 -0.23,5.04 -1.09,9.51 -2.52,13.35 -1.43,3.9 -3.49,7.79 -6.07,11.68 -2.75,4.35 -5.9,8.48 -9.39,12.43 -3.44,3.89 -7.33,7.45 -11.57,10.54 -0.86,0.57 -1.95,0.86 -3.15,0.86l-4.87 -0.34c-1.15,0 -2.06,0.23 -2.86,0.69 -1.03,0.63 -2.18,1.66 -3.44,3.04 -1.32,1.32 -2.64,2.75 -3.95,4.35 -1.37,1.54 -2.63,3.09 -3.95,4.58 -1.26,1.54 -2.4,2.8 -3.44,3.78 -0.69,0.69 -1.55,1.26 -2.58,1.66 -1.09,0.46 -2.64,0.8 -4.64,1.03 -1.55,0 -3.27,-0.23 -5.04,-0.69 -1.78,-0.4 -3.67,-0.92 -5.61,-1.49 -1.95,-0.57 -3.95,-1.09 -5.96,-1.49 -2,-0.46 -3.89,-0.69 -5.73,-0.69 -1.54,0 -3.09,0.17 -4.69,0.57 -1.55,0.4 -2.86,1.32 -4.01,2.75 -2.69,3.61 -5.44,7.39 -8.3,11.46 -2.86,4.01 -5.96,7.73 -9.39,11.22 -3.44,3.49 -7.16,6.3 -11.22,8.53 -4.12,2.23 -8.71,3.38 -13.86,3.38 -5.61,0 -10.37,-1.43 -14.26,-4.35 -3.89,-2.92 -7.1,-6.64 -9.56,-11.17 -2.46,-4.53 -4.3,-9.45 -5.44,-14.78 -1.14,-5.06 -1.77,-9.91 -1.93,-14.6l0 -0.05c-0.13,-1.7 -0.19,-3.39 -0.19,-5.05 0,-0.57 0,-1.55 0,-2.92 0,-1.43 0.06,-3.55 0.17,-6.42 0.12,-2.81 0.29,-6.64 0.57,-11.45 0.29,-4.81 0.63,-11 1.03,-18.5 0.4,-7.45 0.86,-16.44 1.49,-26.92 0.63,-10.42 1.37,-22.85 2.29,-37.17 0.11,-1.43 0.23,-2.92 0.4,-4.41 0.17,-1.55 0.46,-2.86 0.92,-3.95l11.11 -27.89c0.4,-1.09 0.86,-2.12 1.32,-2.98 0.46,-0.92 1.15,-1.37 2,-1.37 0.46,0 0.8,0.29 1.03,0.86 0.23,0.57 0.34,2.12 0.34,4.7 0,2.46 -0.11,6.07 -0.34,10.83 -0.23,4.75 -0.57,11.28 -1.03,19.53 -0.46,8.3 -1.03,18.61 -1.78,31.04 -0.69,12.43 -1.55,27.55 -2.58,45.3 0,3.84 0.17,8.08 0.52,12.77 0.14,1.98 0.33,3.93 0.56,5.85l0 0 0 0.01zm148.71 26.15c0.23,0 0.92,0.17 2.12,0.46 1.15,0.29 2.46,0.57 3.95,0.92 1.43,0.34 2.92,0.63 4.41,0.92 1.55,0.29 2.81,0.4 3.78,0.4 0.8,0 1.32,-0.17 1.55,-0.46 1.66,-7.16 3.09,-14.49 4.35,-21.94 1.2,-7.44 1.83,-14.89 1.83,-22.39 0,-2.12 -0.06,-4.75 -0.23,-7.96 -0.17,-3.21 -0.34,-6.64 -0.51,-10.31 -0.17,-3.72 -0.4,-7.56 -0.69,-11.57 -0.29,-4.07 -0.52,-7.9 -0.69,-11.63 -0.17,-3.67 -0.29,-7.1 -0.46,-10.2 -0.17,-3.15 -0.29,-5.78 -0.29,-7.9 0,-4.35 0.4,-8.82 1.2,-13.4 0.74,-4.58 1.78,-9.22 3.09,-13.92 1.26,-4.75 2.69,-9.39 4.18,-13.97 1.55,-4.58 2.98,-8.99 4.47,-13.23 0.74,-2.12 1.6,-4.24 2.52,-6.3 0.86,-2.06 1.6,-3.09 2.18,-3.09 0.57,0 0.86,1.55 0.86,4.7 0,2.23 -0.12,4.75 -0.29,7.62 -0.17,2.86 -0.23,5.38 -0.23,7.62 0,11.8 0.35,23.31 1.09,34.59 0.69,11.28 1.09,22.45 1.09,33.39 0,6.01 -0.23,12.08 -0.63,18.21 -0.34,6.07 -1.2,11.97 -2.58,17.7 -0.97,4.01 -2.06,7.79 -3.09,11.23 -1.09,3.49 -2.23,6.87 -3.55,10.14 -1.26,3.32 -2.64,6.64 -4.07,9.91 -1.49,3.32 -3.03,6.82 -4.7,10.48 -0.23,0.46 -0.51,1.09 -0.8,1.89 -0.23,0.74 -0.4,1.2 -0.4,1.32 0.8,0.11 1.6,0.23 2.46,0.29 0.8,0 1.66,0.06 2.58,0.06 4.24,0 8.82,-0.52 13.69,-1.6 4.87,-1.03 9.33,-2.69 13.4,-4.87 4.07,-2.18 7.5,-4.98 10.25,-8.36 2.75,-3.44 4.12,-7.5 4.12,-12.2 0,-6.81 -0.06,-12.43 -0.12,-16.95 -0.06,-4.47 -0.11,-8.19 -0.17,-11.23 -0.06,-3.03 -0.11,-5.61 -0.23,-7.73 -0.11,-2.12 -0.23,-4.24 -0.34,-6.36 -0.23,-5.38 -0.46,-11.4 -0.69,-18.1 -0.23,-6.76 -0.34,-13.12 -0.34,-19.13 0,-5.39 0.23,-10.02 0.63,-13.98 0.34,-3.89 0.86,-6.99 1.43,-9.22 0.86,-3.44 1.83,-7.16 2.92,-11.05 1.03,-3.89 2.12,-7.73 3.27,-11.51 1.09,-3.72 2.23,-7.33 3.38,-10.82 1.09,-3.44 2.18,-6.47 3.15,-9.05 0.57,-1.55 1.2,-2.86 1.83,-3.95 0.69,-1.03 1.43,-1.6 2.18,-1.6 0.23,0 0.46,0.29 0.63,0.8 0.17,0.46 0.23,1.43 0.23,2.75 -0.69,9.62 -0.97,19.01 -0.97,28.18 0,4.58 0.11,9.79 0.29,15.64 0.23,5.78 0.51,11.8 0.86,18.04 0.34,6.18 0.74,12.43 1.2,18.67 0.33,5.17 0.73,10.07 1.19,14.77 0.9,2.53 2.04,4.88 3.4,7.05 2.29,3.72 5.61,6.41 10.02,8.08 1.55,0.69 3.89,1.26 7.04,1.66 3.09,0.46 5.9,0.69 8.36,0.69 3.38,0 5.27,-0.51 5.73,-1.49 2.23,-4.7 4.47,-9.68 6.7,-14.89 2.23,-5.15 3.9,-10.48 5.04,-15.81 0.34,-1.37 0.63,-3.38 0.92,-5.96 0.29,-2.64 0.57,-6.59 0.91,-11.8 0.35,-5.16 0.63,-12.03 0.92,-20.5 0.29,-8.53 0.57,-19.36 0.92,-32.59 0,-0.11 0.06,-0.46 0.17,-1.09 0.11,-0.63 0.57,-2.18 1.37,-4.75 0.74,-2.58 2.06,-6.64 3.84,-12.08 1.77,-5.5 4.3,-13.17 7.56,-23.02 0.11,-0.4 0.46,-1.49 1.09,-3.26 0.63,-1.72 1.32,-3.49 2.18,-5.33 0.86,-1.89 1.72,-3.49 2.58,-4.98 0.92,-1.43 1.78,-2.18 2.52,-2.18 0.57,0 0.97,0.34 1.26,1.09 0.29,0.74 0.46,2.52 0.46,5.44 0,3.03 -0.17,7.56 -0.52,13.52 -0.34,6.01 -0.86,14.26 -1.55,24.74 -0.17,3.38 -0.52,7.62 -0.97,12.78 -0.46,5.15 -0.97,10.6 -1.6,16.38 -0.63,5.73 -1.32,11.57 -2.12,17.41 -0.75,5.9 -1.55,11.28 -2.35,16.21 2.58,-3.15 5.27,-6.3 8.08,-9.56 2.8,-3.27 5.84,-6.19 9.05,-8.88 3.26,-2.69 6.7,-4.87 10.42,-6.59 3.66,-1.66 7.73,-2.52 12.08,-2.52 7.04,0 12.26,2.18 15.58,6.41 3.38,4.24 5.04,9.74 5.04,16.44 0,6.7 -1.15,13.06 -3.49,19.02 -2.35,6.01 -5.04,11.91 -8.08,17.7 -4.24,8.42 -9.68,16.32 -16.26,23.71 -6.59,7.39 -14.09,13.92 -22.51,19.59 -3.55,2.46 -7.39,4.81 -11.45,6.99 -4.12,2.18 -8.36,4.12 -12.71,5.78 -4.35,1.66 -8.82,3.03 -13.4,4.01 -4.58,1.03 -9.1,1.55 -13.57,1.55 -6.07,0 -11.57,-0.92 -16.61,-2.69 -4.27,-1.5 -7.9,-3.56 -10.92,-6.18l-0.53 1.14c-2.58,5.44 -5.15,10.88 -7.79,16.15 -2.63,5.33 -6.07,10.94 -10.31,16.89 -1.77,2.46 -4.24,5.33 -7.33,8.53 -3.03,3.26 -6.36,6.3 -9.85,9.16 -3.55,2.86 -7.1,5.27 -10.77,7.27 -3.61,2.01 -6.93,3.04 -9.96,3.04 -2.12,0 -4.01,-0.46 -5.56,-1.32 -1.55,-0.92 -3.15,-2.01 -4.7,-3.21 -1.66,-1.37 -3.67,-3.09 -5.96,-5.27 -2.29,-2.24 -4.47,-4.58 -6.47,-7.04 -2,-2.52 -3.72,-5.1 -5.21,-7.68 -1.43,-2.58 -2.18,-4.87 -2.18,-6.87 0,-3.66 1.77,-5.55 5.21,-5.55zm180.59 -108.19c-4.3,0.23 -8.19,1.37 -11.74,3.44 -3.61,2.06 -6.87,4.7 -9.85,7.79 -2.98,3.15 -5.67,6.64 -8.13,10.42 -2.46,3.84 -4.64,7.5 -6.64,11.17 -1.95,3.61 -3.67,6.99 -5.16,10.14 -1.55,3.15 -2.86,5.61 -3.95,7.39 7.68,-1.32 14.83,-3.21 21.36,-5.56 6.59,-2.35 13.12,-5.96 19.76,-10.88 1.78,-1.32 3.61,-2.81 5.61,-4.47 1.95,-1.6 3.72,-3.38 5.27,-5.27 1.55,-1.89 2.86,-3.95 3.95,-6.13 1.03,-2.18 1.6,-4.58 1.6,-7.1 0,-3.61 -1.15,-6.3 -3.38,-8.19 -2.23,-1.83 -5.16,-2.75 -8.7,-2.75z"/>
   <path   d="M450.59 95.57l0 2.5c0,3.93 -0.92,6.88 -2.77,8.76l-0.21 0c-0.34,0 -0.51,-0.17 -0.51,-0.55 0.48,-2.46 0.72,-4.69 0.72,-6.6 0,-6.3 -3.87,-12.83 -11.53,-19.64 0.2,-1.3 1.13,-2.94 2.74,-5.03l0.31 0c7.49,5.61 11.26,12.46 11.26,20.57z"/>
   <path   d="M464.36 109.9c1.85,0 3.77,1.81 5.81,5.47 0.15,0.38 0.23,0.87 0.23,1.55l0 0.64c-0.68,3.66 -1.47,5.47 -2.41,5.47 -0.23,0 -1.55,-1.13 -3.93,-3.44l-1.55 -0.64c-2.72,0 -5.36,7.89 -8,23.66 -1.77,4.91 -2.98,7.36 -3.74,7.36 -0.71,0 -1.43,-2.23 -2.11,-6.64 -2.87,-7.77 -5.36,-12.79 -7.51,-15.09l-1.02 0 -1.55 1.21 -0.91 0c-2.08,0 -4.38,-2.08 -6.9,-6.31l0 -0.71c2.19,-4.68 3.85,-7.47 5.02,-8.45l0.68 0c6.79,0 11.89,7.74 15.28,23.21l0 0.34 0.34 0c2.87,-18.42 6.95,-27.62 12.26,-27.62z"/>
   <path   d="M733.56 113.07c-2.73,0 -4.1,-2.05 -4.1,-6.15l0 -3c0,-5.93 2.21,-12.73 6.65,-20.36l0.46 0c-2.93,9.2 -4.37,15.39 -4.37,18.58 0,3.19 0.99,4.79 2.93,4.79 1.4,0 2.96,-1.67 4.6,-5.02l0.19 0 0.27 0.46c-1.33,7.14 -3.23,10.71 -5.74,10.71l-0.87 0z"/>
   <path   d="M468.47 210.45c1.55,0 3.15,1.38 4.83,4.17l0 0.59c0,1.64 -0.66,3.02 -1.94,4.11l-0.26 0c-2,-1.97 -3.12,-2.96 -3.38,-2.96l-1.45 0c-1.54,0 -3.55,5.65 -6.08,16.99 -2.76,5.52 -5.16,9.13 -7.19,10.87 -7.33,5.65 -14.65,9.63 -21.95,11.93 -7.33,2.3 -11.24,3.45 -11.76,3.45l-0.3 -0.36c1.35,-1.05 6.54,-3.85 15.51,-8.38 9,-4.57 15.64,-8.48 19.94,-11.76 0,-0.23 0.79,-1.05 2.4,-2.4 0,-3.29 -2.13,-8.28 -6.34,-15.01l-1.45 0c-0.07,0.59 -0.69,0.86 -1.84,0.86 -1.15,0 -2.79,-1.22 -4.9,-3.71l0 -0.4c0.76,-2.13 1.94,-3.88 3.55,-5.22l1.05 0c4.96,0 8.74,4.93 11.37,14.82l0 0.89 0.2 0c2.37,-12.32 5.72,-18.47 9.99,-18.47z"/>
   <path   d="M118.5 156.03l0 1.33c0,4.32 -2.37,11.04 -7.11,20.17l-0.59 2.86c0,3.61 1.3,5.42 3.9,5.42 1.72,0 3.63,-1.49 5.68,-4.48l0.91 0c-1.65,6.89 -4.09,10.33 -7.34,10.33l-1.43 0c-3.34,-0.46 -5.03,-2.92 -5.03,-7.37l0 -0.65c0,-3.83 2.17,-9.97 6.53,-18.48 0.46,-2.14 0.72,-3.74 0.72,-4.74l0 -1.52c0,-5.91 -4.12,-11.82 -12.38,-17.8l0 -0.29c1.2,-1.95 2.37,-3.44 3.51,-4.45l0.39 0c8.15,4.74 12.24,11.3 12.24,19.68z"/>
   <path   d="M381.73 58.73l-0.37 4.87c-15.96,7.58 -34.29,17.1 -54.98,28.59l0.46 -4.87c16.97,-9.55 35.27,-19.1 54.89,-28.59z"/>
   <path   d="M160.19 49.79c3.79,-3.14 6.62,-4.69 8.51,-4.69 1.86,0 3.1,0.52 3.72,1.52l0 0.41c0,2.1 -0.62,3.76 -1.83,4.93 -0.93,-0.86 -1.65,-1.28 -2.21,-1.28l-1 0c-3.58,1 -7.72,3.83 -12.41,8.54l0 0.79c0,0.42 0.86,0.65 2.62,0.79l1.62 0c0.14,0 0.21,0.07 0.21,0.21l0.38 -0.21 0.62 0c1,0 5.38,-0.45 13.09,-1.38 5.27,0.59 7.93,2.45 7.93,5.65l0 1.31c-0.79,4.75 -2.21,7.13 -4.31,7.13 -9.13,2.41 -16.13,3.62 -20.95,3.62 -4.86,0 -8.17,-1.86 -9.99,-5.58 0.14,0 0.21,-0.07 0.21,-0.24 1.93,0.89 4.62,1.34 7.96,1.34 3.38,0 11.58,-1.51 24.6,-4.58l0 -0.45c-0.72,-1.76 -3.21,-2.65 -7.34,-2.65 -7.65,0.93 -11.85,1.41 -12.68,1.41l-2 0c-3.65,0 -5.48,-1.14 -5.48,-3.38 0,-2.96 2.89,-7.41 8.72,-13.23z"/>
   <path   d="M138.16 292.04l1.85 0c3.12,0 4.93,1.98 5.52,5.94l0 2.57c0,7.97 -6.28,16.99 -18.88,27.06l-1.86 0.34 0 -0.34c10.11,-11.05 15.17,-18.21 15.17,-21.5l0 -0.38c0,-1.48 -0.76,-2.57 -2.28,-3.33l-3.41 0c-0.93,0 -2.32,0.63 -4.17,1.85 -0.51,0 -0.76,-0.38 -0.76,-1.1 1.31,-7.42 4.26,-11.13 8.81,-11.13z"/>
   <path   d="M107.16 88.92l1.85 0c3.12,0 4.93,1.98 5.52,5.94l0 2.57c0,7.97 -6.28,16.99 -18.88,27.06l-1.86 0.34 0 -0.34c10.12,-11.04 15.17,-18.21 15.17,-21.5l0 -0.38c0,-1.48 -0.76,-2.57 -2.27,-3.33l-3.41 0c-0.93,0 -2.32,0.63 -4.17,1.85 -0.51,0 -0.76,-0.38 -0.76,-1.1 1.31,-7.42 4.26,-11.13 8.81,-11.13z"/>
   <path   d="M13.89 228.09c-2.48,0 -3.72,-1.86 -3.72,-5.55l0 -2.72c0,-5.41 2,-11.54 6,-18.47l0.41 0c-2.62,8.3 -3.93,13.92 -3.93,16.82 0,2.89 0.86,4.34 2.62,4.34 1.31,0 2.69,-1.52 4.2,-4.55l0.17 0 0.24 0.35c-1.21,6.51 -2.93,9.79 -5.2,9.79l-0.79 0z"/>
   <path   d="M29.39 205.87c6.06,0 9.1,1.41 9.1,4.2 0,2.79 -4.69,8.68 -14.02,17.71 -1.41,1.65 -2.1,3.14 -2.1,4.48l0 0.2c0,2.31 2.07,3.48 6.17,3.48l1.62 0c0.14,0 0.17,0.1 0.17,0.31l0.52 -0.31 1.83 0c4.03,0 9.89,-1.04 17.57,-3.1l0.21 0.45c-6.17,5.89 -13.02,8.85 -20.53,8.85l-3.41 0c-4.83,-1.07 -7.24,-3.17 -7.24,-6.27l0 -2.14c0,-4.31 3.38,-9.61 10.1,-15.89l3.93 -4.24c-0.9,-1.38 -2.79,-2.04 -5.75,-2.04 -2.93,0 -5.55,0.42 -7.86,1.31 -0.07,-0.38 -0.1,-0.59 -0.1,-0.72 1.79,-3.86 3.75,-5.79 5.89,-5.79 0,-0.28 1.31,-0.45 3.93,-0.52z"/>
  </g>
</svg>
